<mxfile host="65bd71144e">
    <diagram id="-lzlWdr16KZX-_EAXECG" name="PÃ¡gina-1">
        <mxGraphModel dx="520" dy="516" grid="1" gridSize="10" guides="1" tooltips="1" connect="1" arrows="1" fold="1" page="1" pageScale="1" pageWidth="827" pageHeight="1169" math="0" shadow="0">
            <root>
                <mxCell id="0"/>
                <mxCell id="1" parent="0"/>
                <mxCell id="12" value="" style="edgeStyle=none;html=1;strokeColor=#000000;" parent="1" source="2" target="11" edge="1">
                    <mxGeometry relative="1" as="geometry"/>
                </mxCell>
                <mxCell id="2" value="INICIO" style="ellipse;whiteSpace=wrap;html=1;strokeColor=#000000;fontColor=#000000;fillColor=#FF9999;" parent="1" vertex="1">
                    <mxGeometry x="200" y="160" width="80" height="40" as="geometry"/>
                </mxCell>
                <mxCell id="6" value="" style="edgeStyle=none;html=1;strokeColor=#000000;fontColor=#000000;" parent="1" source="3" edge="1">
                    <mxGeometry relative="1" as="geometry">
                        <mxPoint x="240" y="400" as="targetPoint"/>
                    </mxGeometry>
                </mxCell>
                <mxCell id="9" value="" style="edgeStyle=orthogonalEdgeStyle;html=1;strokeColor=#000000;fontColor=#000000;" parent="1" source="3" edge="1">
                    <mxGeometry relative="1" as="geometry">
                        <mxPoint x="360" y="380" as="targetPoint"/>
                    </mxGeometry>
                </mxCell>
                <mxCell id="3" value="i = 0, 9" style="shape=hexagon;perimeter=hexagonPerimeter2;whiteSpace=wrap;html=1;fixedSize=1;strokeColor=#000000;fontColor=#000000;fillColor=#99FF99;" parent="1" vertex="1">
                    <mxGeometry x="180" y="320" width="120" height="40" as="geometry"/>
                </mxCell>
                <mxCell id="7" value="" style="endArrow=classic;html=1;entryX=0;entryY=0.5;entryDx=0;entryDy=0;exitX=0.5;exitY=1;exitDx=0;exitDy=0;exitPerimeter=0;strokeColor=#000000;fontColor=#000000;" parent="1" target="3" edge="1">
                    <mxGeometry width="50" height="50" relative="1" as="geometry">
                        <mxPoint x="240" y="440" as="sourcePoint"/>
                        <mxPoint x="350" y="420" as="targetPoint"/>
                        <Array as="points">
                            <mxPoint x="240" y="480"/>
                            <mxPoint x="140" y="480"/>
                            <mxPoint x="140" y="340"/>
                        </Array>
                    </mxGeometry>
                </mxCell>
                <mxCell id="8" value="FIN" style="ellipse;whiteSpace=wrap;html=1;strokeColor=#000000;fontColor=#000000;fillColor=#FF9999;" parent="1" vertex="1">
                    <mxGeometry x="320" y="460" width="80" height="40" as="geometry"/>
                </mxCell>
                <mxCell id="14" value="" style="edgeStyle=none;html=1;strokeColor=#000000;" parent="1" source="11" edge="1">
                    <mxGeometry relative="1" as="geometry">
                        <mxPoint x="240" y="320" as="targetPoint"/>
                    </mxGeometry>
                </mxCell>
                <mxCell id="11" value="suma = 0" style="whiteSpace=wrap;html=1;fillColor=#9999FF;strokeColor=#000000;fontColor=#000000;" parent="1" vertex="1">
                    <mxGeometry x="200" y="240" width="80" height="40" as="geometry"/>
                </mxCell>
                <mxCell id="16" value="suma += i" style="whiteSpace=wrap;html=1;fillColor=#9999FF;strokeColor=#000000;fontColor=#000000;" parent="1" vertex="1">
                    <mxGeometry x="200" y="400" width="80" height="40" as="geometry"/>
                </mxCell>
                <mxCell id="18" style="edgeStyle=none;html=1;entryX=0.5;entryY=0;entryDx=0;entryDy=0;strokeColor=#000000;" parent="1" source="17" target="8" edge="1">
                    <mxGeometry relative="1" as="geometry"/>
                </mxCell>
                <mxCell id="17" value="&lt;font color=&quot;#000000&quot;&gt;suma&lt;/font&gt;" style="shape=document;whiteSpace=wrap;html=1;boundedLbl=1;fillColor=#FFFF99;strokeColor=#000000;" parent="1" vertex="1">
                    <mxGeometry x="320" y="380" width="80" height="40" as="geometry"/>
                </mxCell>
            </root>
        </mxGraphModel>
    </diagram>
</mxfile>